<svg width="48" height="48" viewBox="0 0 48 48" fill="none" xmlns="http://www.w3.org/2000/svg">
<path d="M16 34.5C20.2486 34.5 24.0218 35.3102 26.6768 36.5547C29.4513 37.8553 30.5 39.3543 30.5 40.5C30.5 41.6457 29.4513 43.1447 26.6768 44.4453C24.0218 45.6898 20.2486 46.5 16 46.5C11.7514 46.5 7.97821 45.6898 5.32324 44.4453C2.54869 43.1447 1.5 41.6457 1.5 40.5C1.5 39.3543 2.54869 37.8553 5.32324 36.5547C7.97821 35.3102 11.7514 34.5 16 34.5Z" stroke="#152C5B" stroke-width="3"/>
<path d="M16 1.5C22.9667 1.5 28.5 6.88761 28.5 13.3955C28.5 16.8295 27.0035 23.6526 24.5146 29.6465C23.2758 32.6299 21.8328 35.3028 20.2861 37.2021C18.7014 39.1482 17.2444 40 16 40C14.7556 40 13.2986 39.1482 11.7139 37.2021C10.1672 35.3028 8.72417 32.6299 7.48535 29.6465C4.99654 23.6526 3.50005 16.8295 3.5 13.3955C3.5 6.88761 9.03334 1.5 16 1.5Z" fill="white" stroke="#152C5B" stroke-width="3"/>
<circle cx="16" cy="14" r="4.5" stroke="#FF498B" stroke-width="3"/>
</svg>
