<svg width="48" height="48" viewBox="0 0 48 48" fill="none" xmlns="http://www.w3.org/2000/svg">
<g clip-path="url(#clip0_62_0)">
<rect width="48" height="48" fill="white"/>
<path d="M4 26.5H20C21.3807 26.5 22.5 27.6193 22.5 29V35C22.5 36.3807 21.3807 37.5 20 37.5H4C2.61929 37.5 1.5 36.3807 1.5 35V29C1.5 27.6193 2.61929 26.5 4 26.5Z" stroke="#152C5B" stroke-width="3"/>
<path d="M18 38V46" stroke="#152C5B" stroke-width="3" stroke-linecap="round"/>
<path d="M12 15V25" stroke="#152C5B" stroke-width="3" stroke-linecap="round"/>
<path d="M17 14V18" stroke="#152C5B" stroke-width="3" stroke-linecap="round"/>
<path d="M6 38V46" stroke="#152C5B" stroke-width="3" stroke-linecap="round"/>
<path d="M6.35352 2.5H18.123C18.3697 2.50002 18.5795 2.68005 18.6172 2.92383L20.1611 12.9238C20.2079 13.2268 19.9735 13.5 19.667 13.5H4.42285C4.10883 13.4999 3.87219 13.2136 3.93164 12.9053L5.8623 2.90527C5.90205 2.69939 6.06503 2.54353 6.26562 2.50781L6.35352 2.5Z" stroke="#FF498B" stroke-width="3"/>
</g>
<defs>
<clipPath id="clip0_62_0">
<rect width="48" height="48" fill="white"/>
</clipPath>
</defs>
</svg>
