<svg width="29" height="28" viewBox="0 0 29 28" fill="none" xmlns="http://www.w3.org/2000/svg">
<path d="M13.3789 0.690965C13.6783 -0.230346 14.9817 -0.230344 15.281 0.690967L17.9783 8.99239C18.1122 9.40441 18.4961 9.68337 18.9294 9.68337H27.658C28.6267 9.68337 29.0295 10.923 28.2458 11.4924L21.1842 16.623C20.8337 16.8776 20.687 17.329 20.8209 17.741L23.5182 26.0424C23.8176 26.9637 22.7631 27.7298 21.9794 27.1604L14.9177 22.0299C14.5673 21.7752 14.0927 21.7752 13.7422 22.0299L6.68056 27.1604C5.89685 27.7298 4.84237 26.9637 5.14172 26.0424L7.83902 17.741C7.97289 17.329 7.82624 16.8776 7.47575 16.623L0.414135 11.4924C-0.369579 10.923 0.0331981 9.68337 1.00192 9.68337H9.73056C10.1638 9.68337 10.5477 9.40441 10.6816 8.99239L13.3789 0.690965Z" fill="#FFCC47"/>
</svg>
