<svg width="48" height="48" viewBox="0 0 48 48" fill="none" xmlns="http://www.w3.org/2000/svg">
<g clip-path="url(#clip0_62_37)">
<rect width="48" height="48" fill="white"/>
<path d="M15.9932 13L16.0034 19" stroke="#152C5B" stroke-width="3" stroke-linecap="round"/>
<path d="M30.9932 13L31.0034 19" stroke="#152C5B" stroke-width="3" stroke-linecap="round"/>
<mask id="path-3-inside-1_62_37" fill="white">
<path d="M16 14C13.7909 14 12 12.2091 12 10L12 5C12 4.44772 12.4477 4 13 4L19 4C19.5523 4 20 4.44772 20 5L20 10C20 12.2091 18.2091 14 16 14Z"/>
</mask>
<path d="M16 14C13.7909 14 12 12.2091 12 10L12 5C12 4.44772 12.4477 4 13 4L19 4C19.5523 4 20 4.44772 20 5L20 10C20 12.2091 18.2091 14 16 14Z" stroke="#FF498B" stroke-width="6" mask="url(#path-3-inside-1_62_37)"/>
<mask id="path-4-inside-2_62_37" fill="white">
<path d="M31 14C28.7909 14 27 12.2091 27 10L27 5C27 4.44772 27.4477 4 28 4L34 4C34.5523 4 35 4.44772 35 5L35 10C35 12.2091 33.2091 14 31 14Z"/>
</mask>
<path d="M31 14C28.7909 14 27 12.2091 27 10L27 5C27 4.44772 27.4477 4 28 4L34 4C34.5523 4 35 4.44772 35 5L35 10C35 12.2091 33.2091 14 31 14Z" stroke="#FF498B" stroke-width="6" mask="url(#path-4-inside-2_62_37)"/>
<path d="M8.47168 19.5H39.5283C40.475 19.5002 41.3402 20.0351 41.7637 20.8818L43.7637 24.8818C44.5947 26.544 43.3865 28.4997 41.5283 28.5H6.47168C4.61348 28.4997 3.40527 26.544 4.23633 24.8818L6.23633 20.8818C6.65978 20.0351 7.525 19.5002 8.47168 19.5Z" stroke="#152C5B" stroke-width="3"/>
<mask id="path-6-inside-3_62_37" fill="white">
<path d="M9 46C11.2091 46 13 44.2091 13 42L13 28C13 27.4477 12.5523 27 12 27L6 27C5.44772 27 5 27.4477 5 28L5 42C5 44.2091 6.79086 46 9 46Z"/>
</mask>
<path d="M9 46C11.2091 46 13 44.2091 13 42L13 28C13 27.4477 12.5523 27 12 27L6 27C5.44772 27 5 27.4477 5 28L5 42C5 44.2091 6.79086 46 9 46Z" stroke="#152C5B" stroke-width="6" mask="url(#path-6-inside-3_62_37)"/>
<mask id="path-7-inside-4_62_37" fill="white">
<path d="M39 46C36.7909 46 35 44.2091 35 42L35 28C35 27.4477 35.4477 27 36 27L42 27C42.5523 27 43 27.4477 43 28L43 42C43 44.2091 41.2091 46 39 46Z"/>
</mask>
<path d="M39 46C36.7909 46 35 44.2091 35 42L35 28C35 27.4477 35.4477 27 36 27L42 27C42.5523 27 43 27.4477 43 28L43 42C43 44.2091 41.2091 46 39 46Z" stroke="#152C5B" stroke-width="6" mask="url(#path-7-inside-4_62_37)"/>
</g>
<defs>
<clipPath id="clip0_62_37">
<rect width="48" height="48" fill="white"/>
</clipPath>
</defs>
</svg>
